<svg width="408" height="445" viewBox="0 0 408 445" fill="none" xmlns="http://www.w3.org/2000/svg">
<path d="M3.05176e-05 444.816C81.943 442.739 141.713 372.185 210.514 327.621C279.04 283.236 378.626 261.967 402.736 183.954C427.169 104.899 354.755 30.7682 326.268 -46.9178C304.263 -106.925 285.943 -164.897 254.424 -220.497C215.467 -289.219 192.473 -377.785 120.393 -410.091C47.492 -442.764 -45.1769 -427.286 -113.089 -385.211C-176.861 -345.701 -178.818 -254.178 -225.745 -195.642C-269.988 -140.453 -353.698 -120.722 -378.296 -54.4001C-404.238 15.5467 -387.407 95.0009 -359.146 164.044C-330.184 234.798 -277.71 291.384 -217.483 338.468C-152.591 389.198 -82.337 446.902 3.05176e-05 444.816Z" fill="#181E20"/>
</svg>
